# xmcd
#
# Track frame offsets:
# 150
# 21507
# 38782
# 56548
# 71604
# 86691
# 104415
# 117197
# 130126
# 147972
# 163946
# 180706
# 193824
# 215519
# 228942
# 240109
# 255030
# 268393
#
# Disc length: 3832 seconds
#
#
# Revision: 1
# Processed by: cddbd v1.5.2PL0 Copyright (c) Steve Scherf et al.
# Submitted via: FreeRIP 2.945 
#
DISCID=010ef612
DTITLE=Brian Crain - Live In Korea - Solo Piano
DYEAR=2002
DGENRE=New Age
TTITLE0=A walk In The Forest
TTITLE1=Fly Away
TTITLE2=Sunshine And Blossoms
TTITLE3=Morning Light
TTITLE4=White Dove
TTITLE5=Break In The Clouds
TTITLE6=Sunrise
TTITLE7=Voice From The Past
TTITLE8=Northern Lights
TTITLE9=Across The Bay
TTITLE10=Gentle Rain
TTITLE11=Kindred Spirits
TTITLE12=Northern  Sky
TTITLE13=Innocent Heart
TTITLE14=Broken Shadows
TTITLE15=Moonrise
TTITLE16=Dancing By Starlight
TTITLE17=Butterfly Waltz
EXTD=
EXTT0=
EXTT1=
EXTT2=
EXTT3=
EXTT4=
EXTT5=
EXTT6=
EXTT7=
EXTT8=
EXTT9=
EXTT10=
EXTT11=
EXTT12=
EXTT13=
EXTT14=
EXTT15=
EXTT16=
EXTT17=
PLAYORDER=
